<svg viewBox="0 222 1033 241" xmlns="http://www.w3.org/2000/svg">
<title>Ozthropic wordmark</title>
<defs><linearGradient id="gz" gradientUnits="userSpaceOnUse" x1="40" y1="262" x2="305" y2="405"><stop offset="0" stop-color="#2DD4BF"/><stop offset="0.58" stop-color="#2563EB"/></linearGradient></defs>
<path d="M120.15 399.568Q105.45 399.568 93.298 394.472Q81.146 389.376 72.424 380.164Q63.702 370.952 58.998 358.898Q54.294 346.844 54.294 333.124Q54.294 319.20799999999997 58.998 307.25199999999995Q63.702 295.296 72.424 286.084Q81.146 276.872 93.298 271.776Q105.45 266.68 120.15 266.68Q134.85 266.68 147.002 271.776Q159.154 276.872 167.876 286.084Q176.598 295.296 181.30200000000002 307.25199999999995Q186.006 319.20799999999997 186.006 333.124Q186.006 346.844 181.30200000000002 358.898Q176.598 370.952 167.876 380.164Q159.154 389.376 147.002 394.472Q134.85 399.568 120.15 399.568ZM120.15 385.26Q136.026 385.26 147.49200000000002 378.302Q158.958 371.344 165.132 359.486Q171.306 347.628 171.306 333.124Q171.306 318.424 165.132 306.664Q158.958 294.904 147.49200000000002 287.946Q136.026 280.988 120.15 280.988Q104.47 280.988 92.906 287.946Q81.342 294.904 75.168 306.664Q68.994 318.424 68.994 333.124Q68.994 347.628 75.168 359.486Q81.342 371.344 92.906 378.302Q104.47 385.26 120.15 385.26Z" fill="url(#gz)" stroke="url(#gz)" stroke-width="13.30" stroke-linejoin="round" stroke-linecap="round"/>
<path d="M210.36599999999999 398.0V384.084L268.97 313.524H211.15V300.0H287.59V313.72L228.79 384.28H287.59V398.0Z" fill="url(#gz)" stroke="url(#gz)" stroke-width="13.30" stroke-linejoin="round" stroke-linecap="round"/>
<path d="M328.022 398.0V312.936H308.03V300.0H328.022V264.916H342.722V300.0H365.262V312.936H342.722V398.0Z" fill="#111111" stroke="#111111" stroke-width="13.30" stroke-linejoin="round" stroke-linecap="round"/>
<path d="M391.974 398.0V260.79999999999995H406.674V315.288Q411.966 308.23199999999997 419.61 303.332Q427.25399999999996 298.432 439.21 298.432Q449.402 298.432 458.32 303.23400000000004Q467.238 308.036 472.82399999999996 317.54200000000003Q478.40999999999997 327.048 478.40999999999997 340.964V398.0H463.71V341.356Q463.71 328.028 456.066 319.894Q448.42199999999997 311.76 436.27 311.76Q428.038 311.76 421.374 315.484Q414.71 319.20799999999997 410.692 325.96999999999997Q406.674 332.73199999999997 406.674 341.552V398.0Z" fill="#111111" stroke="#111111" stroke-width="13.30" stroke-linejoin="round" stroke-linecap="round"/>
<path d="M513.55 398.0V300.0H528.25V324.108Q529.034 321.56 531.288 317.346Q533.542 313.132 537.854 308.82Q542.166 304.508 548.732 301.47Q555.298 298.432 564.314 298.432H565.294V313.132H563.53Q552.554 313.132 544.616 319.11Q536.678 325.08799999999997 532.4639999999999 334.594Q528.25 344.1 528.25 354.88V398.0Z" fill="#111111" stroke="#111111" stroke-width="13.30" stroke-linejoin="round" stroke-linecap="round"/>
<path d="M631.7940000000001 399.568Q616.898 399.568 605.922 392.806Q594.946 386.044 589.066 374.48Q583.186 362.916 583.186 349.0Q583.186 334.888 589.066 323.422Q594.946 311.956 605.922 305.194Q616.898 298.432 631.7940000000001 298.432Q646.8860000000001 298.432 657.7640000000001 305.194Q668.642 311.956 674.522 323.422Q680.402 334.888 680.402 349.0Q680.402 362.916 674.522 374.48Q668.642 386.044 657.7640000000001 392.806Q646.8860000000001 399.568 631.7940000000001 399.568ZM631.7940000000001 386.24Q642.7700000000001 386.24 650.316 381.144Q657.8620000000001 376.048 661.782 367.522Q665.702 358.996 665.702 349.0Q665.702 338.808 661.782 330.38Q657.8620000000001 321.952 650.316 316.856Q642.7700000000001 311.76 631.7940000000001 311.76Q621.014 311.76 613.37 316.856Q605.726 321.952 601.806 330.38Q597.8860000000001 338.808 597.8860000000001 349.0Q597.8860000000001 358.996 601.806 367.522Q605.726 376.048 613.37 381.144Q621.014 386.24 631.7940000000001 386.24Z" fill="#111111" stroke="#111111" stroke-width="13.30" stroke-linejoin="round" stroke-linecap="round"/>
<path d="M710.446 436.808V300.0H725.1460000000001V315.68Q730.634 307.644 739.356 303.038Q748.078 298.432 760.23 298.432Q774.538 298.432 785.22 305.194Q795.902 311.956 801.782 323.422Q807.662 334.888 807.662 349.0Q807.662 362.916 801.782 374.48Q795.902 386.044 785.22 392.806Q774.538 399.568 760.23 399.568Q748.078 399.568 739.356 394.76599999999996Q730.634 389.964 725.1460000000001 382.124V436.808ZM758.27 386.24Q769.246 386.24 776.988 381.144Q784.73 376.048 788.846 367.522Q792.962 358.996 792.962 349.0Q792.962 338.808 788.846 330.38Q784.73 321.952 776.988 316.856Q769.246 311.76 758.27 311.76Q747.49 311.76 739.846 316.856Q732.202 321.952 728.2819999999999 330.38Q724.362 338.808 724.362 349.0Q724.362 358.996 728.2819999999999 367.522Q732.202 376.048 739.846 381.144Q747.49 386.24 758.27 386.24Z" fill="#111111" stroke="#111111" stroke-width="13.30" stroke-linejoin="round" stroke-linecap="round"/>
<path d="M837.118 283.536V264.328H852.994V283.536ZM837.706 398.0V300.0H852.4060000000001V398.0Z" fill="#111111" stroke="#111111" stroke-width="13.30" stroke-linejoin="round" stroke-linecap="round"/>
<path d="M930.666 399.568Q915.966 399.568 905.186 392.806Q894.4060000000001 386.044 888.4280000000001 374.48Q882.45 362.916 882.45 349.0Q882.45 334.888 888.4280000000001 323.422Q894.4060000000001 311.956 905.186 305.194Q915.966 298.432 930.666 298.432Q948.11 298.432 960.36 307.448Q972.61 316.464 976.922 330.772H961.046Q957.714 322.344 950.364 317.052Q943.0140000000001 311.76 932.6260000000001 311.76Q921.846 311.76 913.8100000000001 316.856Q905.7740000000001 321.952 901.4620000000001 330.38Q897.1500000000001 338.808 897.1500000000001 349.0Q897.1500000000001 358.996 901.4620000000001 367.522Q905.7740000000001 376.048 913.8100000000001 381.144Q921.846 386.24 932.6260000000001 386.24Q943.0140000000001 386.24 950.364 380.948Q957.714 375.656 961.046 367.228H976.922Q972.61 381.536 960.36 390.552Q948.11 399.568 930.666 399.568Z" fill="#111111" stroke="#111111" stroke-width="13.30" stroke-linejoin="round" stroke-linecap="round"/>
</svg>