<svg viewBox="0 0 760 680" xmlns="http://www.w3.org/2000/svg">
<title>Ozthropic — AI consultancy, Australia</title>
<defs><linearGradient id="g" x1="0" y1="0" x2="1" y2="1"><stop offset="0" stop-color="#FFFFFF"/><stop offset="1" stop-color="#FFFFFF"/></linearGradient></defs>
<g fill="#FFFFFF">
<rect x="31.0" y="249.5" width="28" height="96.5" rx="14.0"/>
<rect x="77.0" y="205.3" width="28" height="171.7" rx="14.0"/>
<rect x="77.0" y="419.0" width="28" height="32.8" rx="14.0"/>
<rect x="123.0" y="176.5" width="28" height="273.2" rx="14.0"/>
<rect x="169.0" y="145.4" width="28" height="297.0" rx="14.0"/>
<rect x="215.0" y="113.3" width="28" height="312.3" rx="14.0"/>
<rect x="261.0" y="112.8" width="28" height="296.0" rx="14.0"/>
<rect x="307.0" y="116.0" width="28" height="292.1" rx="14.0"/>
<rect x="353.0" y="47.7" width="28" height="217.3" rx="14.0"/>
<rect x="353.0" y="315.0" width="28" height="109.3" rx="14.0"/>
<rect x="399.0" y="67.6" width="28" height="380.1" rx="14.0"/>
<rect x="445.0" y="139.6" width="28" height="271.4" rx="14.0"/>
<rect x="491.0" y="38.0" width="28" height="483.9" rx="14.0"/>
<rect x="537.0" y="131.5" width="28" height="339.5" rx="14.0"/>
<rect x="537.0" y="566.6" width="28" height="45.8" rx="14.0"/>
<rect x="583.0" y="205.7" width="28" height="300.0" rx="14.0"/>
<rect x="629.0" y="282.9" width="28" height="41.1" rx="14.0"/>
<rect x="629.0" y="366.0" width="28" height="45.0" rx="14.0"/>

</g>
<g fill="#FFFFFF">
<circle cx="91.0" cy="398.0" r="13.0"/>
<circle cx="321.0" cy="95.0" r="13.0"/>
<circle cx="367.0" cy="290.0" r="17.0"/>
<circle cx="459.0" cy="432.0" r="13.0"/>
<circle cx="551.0" cy="492.0" r="13.0"/>
<circle cx="643.0" cy="345.0" r="13.0"/>
<circle cx="643.0" cy="432.0" r="13.0"/>
</g>
</svg>