<svg viewBox="0 0 1823 680" xmlns="http://www.w3.org/2000/svg">
<title>Ozthropic</title>
<defs><linearGradient id="gz" gradientUnits="userSpaceOnUse" x1="800" y1="262" x2="1065" y2="405"><stop offset="0" stop-color="#2DD4BF"/><stop offset="0.58" stop-color="#2563EB"/></linearGradient></defs>
<g>

<defs><linearGradient id="g" x1="0" y1="0" x2="1" y2="1"><stop offset="0" stop-color="#2DD4BF"/><stop offset="1" stop-color="#2563EB"/></linearGradient></defs>
<g fill="url(#g)">
<rect x="31.0" y="249.5" width="28" height="96.5" rx="14.0"/>
<rect x="77.0" y="205.3" width="28" height="171.7" rx="14.0"/>
<rect x="77.0" y="419.0" width="28" height="32.8" rx="14.0"/>
<rect x="123.0" y="176.5" width="28" height="273.2" rx="14.0"/>
<rect x="169.0" y="145.4" width="28" height="297.0" rx="14.0"/>
<rect x="215.0" y="113.3" width="28" height="312.3" rx="14.0"/>
<rect x="261.0" y="112.8" width="28" height="296.0" rx="14.0"/>
<rect x="307.0" y="116.0" width="28" height="292.1" rx="14.0"/>
<rect x="353.0" y="47.7" width="28" height="217.3" rx="14.0"/>
<rect x="353.0" y="315.0" width="28" height="109.3" rx="14.0"/>
<rect x="399.0" y="67.6" width="28" height="380.1" rx="14.0"/>
<rect x="445.0" y="139.6" width="28" height="271.4" rx="14.0"/>
<rect x="491.0" y="38.0" width="28" height="483.9" rx="14.0"/>
<rect x="537.0" y="131.5" width="28" height="339.5" rx="14.0"/>
<rect x="537.0" y="566.6" width="28" height="45.8" rx="14.0"/>
<rect x="583.0" y="205.7" width="28" height="300.0" rx="14.0"/>
<rect x="629.0" y="282.9" width="28" height="41.1" rx="14.0"/>
<rect x="629.0" y="366.0" width="28" height="45.0" rx="14.0"/>

</g>
<g fill="url(#g)">
<circle cx="91.0" cy="398.0" r="13.0"/>
<circle cx="321.0" cy="95.0" r="13.0"/>
<circle cx="367.0" cy="290.0" r="17.0"/>
<circle cx="459.0" cy="432.0" r="13.0"/>
<circle cx="551.0" cy="492.0" r="13.0"/>
<circle cx="643.0" cy="345.0" r="13.0"/>
<circle cx="643.0" cy="432.0" r="13.0"/>
</g>
</g>
<path d="M880.15 399.568Q865.4499999999999 399.568 853.298 394.472Q841.146 389.376 832.424 380.164Q823.702 370.952 818.998 358.898Q814.294 346.844 814.294 333.124Q814.294 319.20799999999997 818.998 307.25199999999995Q823.702 295.296 832.424 286.084Q841.146 276.872 853.298 271.776Q865.4499999999999 266.68 880.15 266.68Q894.85 266.68 907.002 271.776Q919.154 276.872 927.876 286.084Q936.598 295.296 941.3019999999999 307.25199999999995Q946.006 319.20799999999997 946.006 333.124Q946.006 346.844 941.3019999999999 358.898Q936.598 370.952 927.876 380.164Q919.154 389.376 907.002 394.472Q894.85 399.568 880.15 399.568ZM880.15 385.26Q896.026 385.26 907.492 378.302Q918.958 371.344 925.1320000000001 359.486Q931.306 347.628 931.306 333.124Q931.306 318.424 925.1320000000001 306.664Q918.958 294.904 907.492 287.946Q896.026 280.988 880.15 280.988Q864.47 280.988 852.906 287.946Q841.342 294.904 835.168 306.664Q828.994 318.424 828.994 333.124Q828.994 347.628 835.168 359.486Q841.342 371.344 852.906 378.302Q864.47 385.26 880.15 385.26Z" fill="url(#gz)" stroke="url(#gz)" stroke-width="13.30" stroke-linejoin="round" stroke-linecap="round"/>
<path d="M970.366 398.0V384.084L1028.97 313.524H971.15V300.0H1047.59V313.72L988.79 384.28H1047.59V398.0Z" fill="url(#gz)" stroke="url(#gz)" stroke-width="13.30" stroke-linejoin="round" stroke-linecap="round"/>
<path d="M1088.022 398.0V312.936H1068.03V300.0H1088.022V264.916H1102.7219999999998V300.0H1125.262V312.936H1102.7219999999998V398.0Z" fill="#111111" stroke="#111111" stroke-width="13.30" stroke-linejoin="round" stroke-linecap="round"/>
<path d="M1151.974 398.0V260.79999999999995H1166.674V315.288Q1171.966 308.23199999999997 1179.61 303.332Q1187.254 298.432 1199.21 298.432Q1209.402 298.432 1218.32 303.23400000000004Q1227.2379999999998 308.036 1232.8239999999998 317.54200000000003Q1238.4099999999999 327.048 1238.4099999999999 340.964V398.0H1223.71V341.356Q1223.71 328.028 1216.066 319.894Q1208.422 311.76 1196.27 311.76Q1188.038 311.76 1181.374 315.484Q1174.71 319.20799999999997 1170.692 325.96999999999997Q1166.674 332.73199999999997 1166.674 341.552V398.0Z" fill="#111111" stroke="#111111" stroke-width="13.30" stroke-linejoin="round" stroke-linecap="round"/>
<path d="M1273.55 398.0V300.0H1288.25V324.108Q1289.0339999999999 321.56 1291.288 317.346Q1293.542 313.132 1297.8539999999998 308.82Q1302.166 304.508 1308.732 301.47Q1315.298 298.432 1324.3139999999999 298.432H1325.2939999999999V313.132H1323.53Q1312.5539999999999 313.132 1304.616 319.11Q1296.6779999999999 325.08799999999997 1292.464 334.594Q1288.25 344.1 1288.25 354.88V398.0Z" fill="#111111" stroke="#111111" stroke-width="13.30" stroke-linejoin="round" stroke-linecap="round"/>
<path d="M1391.7939999999999 399.568Q1376.898 399.568 1365.922 392.806Q1354.946 386.044 1349.0659999999998 374.48Q1343.186 362.916 1343.186 349.0Q1343.186 334.888 1349.0659999999998 323.422Q1354.946 311.956 1365.922 305.194Q1376.898 298.432 1391.7939999999999 298.432Q1406.886 298.432 1417.764 305.194Q1428.6419999999998 311.956 1434.522 323.422Q1440.402 334.888 1440.402 349.0Q1440.402 362.916 1434.522 374.48Q1428.6419999999998 386.044 1417.764 392.806Q1406.886 399.568 1391.7939999999999 399.568ZM1391.7939999999999 386.24Q1402.77 386.24 1410.3159999999998 381.144Q1417.8619999999999 376.048 1421.782 367.522Q1425.702 358.996 1425.702 349.0Q1425.702 338.808 1421.782 330.38Q1417.8619999999999 321.952 1410.3159999999998 316.856Q1402.77 311.76 1391.7939999999999 311.76Q1381.014 311.76 1373.37 316.856Q1365.7259999999999 321.952 1361.806 330.38Q1357.886 338.808 1357.886 349.0Q1357.886 358.996 1361.806 367.522Q1365.7259999999999 376.048 1373.37 381.144Q1381.014 386.24 1391.7939999999999 386.24Z" fill="#111111" stroke="#111111" stroke-width="13.30" stroke-linejoin="round" stroke-linecap="round"/>
<path d="M1470.446 436.808V300.0H1485.146V315.68Q1490.634 307.644 1499.356 303.038Q1508.078 298.432 1520.23 298.432Q1534.538 298.432 1545.2199999999998 305.194Q1555.9019999999998 311.956 1561.7819999999997 323.422Q1567.6619999999998 334.888 1567.6619999999998 349.0Q1567.6619999999998 362.916 1561.7819999999997 374.48Q1555.9019999999998 386.044 1545.2199999999998 392.806Q1534.538 399.568 1520.23 399.568Q1508.078 399.568 1499.356 394.76599999999996Q1490.634 389.964 1485.146 382.124V436.808ZM1518.27 386.24Q1529.2459999999999 386.24 1536.9879999999998 381.144Q1544.73 376.048 1548.846 367.522Q1552.962 358.996 1552.962 349.0Q1552.962 338.808 1548.846 330.38Q1544.73 321.952 1536.9879999999998 316.856Q1529.2459999999999 311.76 1518.27 311.76Q1507.49 311.76 1499.846 316.856Q1492.202 321.952 1488.282 330.38Q1484.3619999999999 338.808 1484.3619999999999 349.0Q1484.3619999999999 358.996 1488.282 367.522Q1492.202 376.048 1499.846 381.144Q1507.49 386.24 1518.27 386.24Z" fill="#111111" stroke="#111111" stroke-width="13.30" stroke-linejoin="round" stroke-linecap="round"/>
<path d="M1597.118 283.536V264.328H1612.994V283.536ZM1597.706 398.0V300.0H1612.406V398.0Z" fill="#111111" stroke="#111111" stroke-width="13.30" stroke-linejoin="round" stroke-linecap="round"/>
<path d="M1690.666 399.568Q1675.966 399.568 1665.1859999999997 392.806Q1654.4059999999997 386.044 1648.4279999999999 374.48Q1642.4499999999998 362.916 1642.4499999999998 349.0Q1642.4499999999998 334.888 1648.4279999999999 323.422Q1654.4059999999997 311.956 1665.1859999999997 305.194Q1675.966 298.432 1690.666 298.432Q1708.11 298.432 1720.36 307.448Q1732.61 316.464 1736.9219999999998 330.772H1721.0459999999998Q1717.714 322.344 1710.364 317.052Q1703.014 311.76 1692.6259999999997 311.76Q1681.8459999999998 311.76 1673.81 316.856Q1665.774 321.952 1661.462 330.38Q1657.1499999999999 338.808 1657.1499999999999 349.0Q1657.1499999999999 358.996 1661.462 367.522Q1665.774 376.048 1673.81 381.144Q1681.8459999999998 386.24 1692.6259999999997 386.24Q1703.014 386.24 1710.364 380.948Q1717.714 375.656 1721.0459999999998 367.228H1736.9219999999998Q1732.61 381.536 1720.36 390.552Q1708.11 399.568 1690.666 399.568Z" fill="#111111" stroke="#111111" stroke-width="13.30" stroke-linejoin="round" stroke-linecap="round"/>
</svg>